STARTFONT 2.1
COMMENT
COMMENT Converted from OpenType font "m23.TTF" by "otf2bdf 3.0".
COMMENT
FONT -FreeType-M23_HYDRANT SPECIAL-Medium-R-Normal--12-90-100-100-P-28-ISO10646-1
SIZE 9 100 100
FONTBOUNDINGBOX 12 12 0 0
STARTPROPERTIES 19
FOUNDRY "FreeType"
FAMILY_NAME "M23_HYDRANT SPECIAL"
WEIGHT_NAME "Medium"
SLANT "R"
SETWIDTH_NAME "Normal"
ADD_STYLE_NAME ""
PIXEL_SIZE 12
POINT_SIZE 90
RESOLUTION_X 100
RESOLUTION_Y 100
SPACING "P"
AVERAGE_WIDTH 28
CHARSET_REGISTRY "ISO10646"
CHARSET_ENCODING "1"
FONT_ASCENT 13
FONT_DESCENT 0
COPYRIGHT "Neko/MIFFIES"
_OTF_FONTFILE "m23.TTF"
_OTF_PSNAME "M23_HYDRANT SPECIAL"
ENDPROPERTIES
CHARS 219
STARTCHAR 0020
ENCODING 32
SWIDTH 400 0
DWIDTH 5 0
BBX 0 0 0 0
BITMAP
ENDCHAR
STARTCHAR 0021
ENCODING 33
SWIDTH 400 0
DWIDTH 5 0
BBX 0 0 0 0
BITMAP
ENDCHAR
STARTCHAR 0022
ENCODING 34
SWIDTH 400 0
DWIDTH 5 0
BBX 0 0 0 0
BITMAP
ENDCHAR
STARTCHAR 0023
ENCODING 35
SWIDTH 400 0
DWIDTH 5 0
BBX 0 0 0 0
BITMAP
ENDCHAR
STARTCHAR 0024
ENCODING 36
SWIDTH 400 0
DWIDTH 5 0
BBX 0 0 0 0
BITMAP
ENDCHAR
STARTCHAR 0025
ENCODING 37
SWIDTH 400 0
DWIDTH 5 0
BBX 0 0 0 0
BITMAP
ENDCHAR
STARTCHAR 0026
ENCODING 38
SWIDTH 400 0
DWIDTH 5 0
BBX 0 0 0 0
BITMAP
ENDCHAR
STARTCHAR 0027
ENCODING 39
SWIDTH 400 0
DWIDTH 5 0
BBX 0 0 0 0
BITMAP
ENDCHAR
STARTCHAR 0028
ENCODING 40
SWIDTH 400 0
DWIDTH 5 0
BBX 0 0 0 0
BITMAP
ENDCHAR
STARTCHAR 0029
ENCODING 41
SWIDTH 400 0
DWIDTH 5 0
BBX 0 0 0 0
BITMAP
ENDCHAR
STARTCHAR 002A
ENCODING 42
SWIDTH 400 0
DWIDTH 5 0
BBX 0 0 0 0
BITMAP
ENDCHAR
STARTCHAR 002B
ENCODING 43
SWIDTH 400 0
DWIDTH 5 0
BBX 0 0 0 0
BITMAP
ENDCHAR
STARTCHAR 002C
ENCODING 44
SWIDTH 400 0
DWIDTH 5 0
BBX 0 0 0 0
BITMAP
ENDCHAR
STARTCHAR 002D
ENCODING 45
SWIDTH 400 0
DWIDTH 5 0
BBX 0 0 0 0
BITMAP
ENDCHAR
STARTCHAR 002E
ENCODING 46
SWIDTH 400 0
DWIDTH 5 0
BBX 3 3 0 0
BITMAP
E0
E0
E0
ENDCHAR
STARTCHAR 002F
ENCODING 47
SWIDTH 400 0
DWIDTH 5 0
BBX 0 0 0 0
BITMAP
ENDCHAR
STARTCHAR 0030
ENCODING 48
SWIDTH 720 0
DWIDTH 9 0
BBX 8 12 0 0
BITMAP
FF
FF
FF
EF
EF
EF
EF
EF
EF
FF
FF
7E
ENDCHAR
STARTCHAR 0031
ENCODING 49
SWIDTH 480 0
DWIDTH 6 0
BBX 5 12 0 0
BITMAP
F8
F8
F8
78
78
78
78
78
78
78
78
78
ENDCHAR
STARTCHAR 0032
ENCODING 50
SWIDTH 720 0
DWIDTH 9 0
BBX 8 12 0 0
BITMAP
FF
FF
FF
0F
7F
FF
FF
E0
E0
FF
FF
FF
ENDCHAR
STARTCHAR 0033
ENCODING 51
SWIDTH 720 0
DWIDTH 9 0
BBX 8 12 0 0
BITMAP
FF
FF
FF
0F
FF
FE
FF
FF
0F
FF
FF
FE
ENDCHAR
STARTCHAR 0034
ENCODING 52
SWIDTH 720 0
DWIDTH 9 0
BBX 8 12 0 0
BITMAP
EF
EF
EF
EF
FF
FF
FF
FF
0F
0F
0F
0F
ENDCHAR
STARTCHAR 0035
ENCODING 53
SWIDTH 720 0
DWIDTH 9 0
BBX 8 12 0 0
BITMAP
FF
FF
FF
E0
FE
FF
FF
FF
0F
FF
FF
FE
ENDCHAR
STARTCHAR 0036
ENCODING 54
SWIDTH 720 0
DWIDTH 9 0
BBX 8 12 0 0
BITMAP
FF
FF
FF
E0
FE
FF
FF
EF
EF
FF
FF
7E
ENDCHAR
STARTCHAR 0037
ENCODING 55
SWIDTH 720 0
DWIDTH 9 0
BBX 8 12 0 0
BITMAP
FF
FF
FF
EF
EF
0F
0F
0F
0F
0F
0F
0F
ENDCHAR
STARTCHAR 0038
ENCODING 56
SWIDTH 720 0
DWIDTH 9 0
BBX 8 12 0 0
BITMAP
FF
FF
FF
EF
FF
7E
FF
EF
EF
FF
FF
7E
ENDCHAR
STARTCHAR 0039
ENCODING 57
SWIDTH 720 0
DWIDTH 9 0
BBX 8 12 0 0
BITMAP
FF
FF
FF
EF
FF
FF
FF
7F
0F
FF
FF
FE
ENDCHAR
STARTCHAR 003A
ENCODING 58
SWIDTH 400 0
DWIDTH 5 0
BBX 0 0 0 0
BITMAP
ENDCHAR
STARTCHAR 003B
ENCODING 59
SWIDTH 400 0
DWIDTH 5 0
BBX 0 0 0 0
BITMAP
ENDCHAR
STARTCHAR 003C
ENCODING 60
SWIDTH 400 0
DWIDTH 5 0
BBX 0 0 0 0
BITMAP
ENDCHAR
STARTCHAR 003D
ENCODING 61
SWIDTH 400 0
DWIDTH 5 0
BBX 0 0 0 0
BITMAP
ENDCHAR
STARTCHAR 003E
ENCODING 62
SWIDTH 400 0
DWIDTH 5 0
BBX 0 0 0 0
BITMAP
ENDCHAR
STARTCHAR 003F
ENCODING 63
SWIDTH 400 0
DWIDTH 5 0
BBX 0 0 0 0
BITMAP
ENDCHAR
STARTCHAR 0040
ENCODING 64
SWIDTH 400 0
DWIDTH 5 0
BBX 0 0 0 0
BITMAP
ENDCHAR
STARTCHAR 0041
ENCODING 65
SWIDTH 720 0
DWIDTH 9 0
BBX 8 12 0 0
BITMAP
FF
FF
FF
EF
FF
FF
FF
EF
EF
EF
EF
EF
ENDCHAR
STARTCHAR 0042
ENCODING 66
SWIDTH 720 0
DWIDTH 9 0
BBX 8 12 0 0
BITMAP
FF
FF
FF
EF
FF
FE
FF
EF
EF
FF
FF
FE
ENDCHAR
STARTCHAR 0043
ENCODING 67
SWIDTH 720 0
DWIDTH 9 0
BBX 8 12 0 0
BITMAP
FF
FF
FF
EF
E0
E0
E0
EF
EF
FF
FF
7E
ENDCHAR
STARTCHAR 0044
ENCODING 68
SWIDTH 720 0
DWIDTH 9 0
BBX 8 12 0 0
BITMAP
FF
FF
FF
EF
EF
EF
EF
EF
EF
FF
FF
FE
ENDCHAR
STARTCHAR 0045
ENCODING 69
SWIDTH 720 0
DWIDTH 9 0
BBX 8 12 0 0
BITMAP
FF
FF
FF
E0
FF
FF
FF
E0
E0
FF
FF
FF
ENDCHAR
STARTCHAR 0046
ENCODING 70
SWIDTH 720 0
DWIDTH 9 0
BBX 8 12 0 0
BITMAP
FF
FF
FF
E0
FF
FF
FF
E0
E0
E0
E0
E0
ENDCHAR
STARTCHAR 0047
ENCODING 71
SWIDTH 720 0
DWIDTH 9 0
BBX 8 12 0 0
BITMAP
FF
FF
FF
E0
EF
EF
EF
EF
EF
FF
FF
7F
ENDCHAR
STARTCHAR 0048
ENCODING 72
SWIDTH 720 0
DWIDTH 9 0
BBX 8 12 0 0
BITMAP
EF
EF
EF
EF
FF
FF
FF
EF
EF
EF
EF
EF
ENDCHAR
STARTCHAR 0049
ENCODING 73
SWIDTH 400 0
DWIDTH 5 0
BBX 3 12 0 0
BITMAP
E0
E0
E0
E0
E0
E0
E0
E0
E0
E0
E0
E0
ENDCHAR
STARTCHAR 004A
ENCODING 74
SWIDTH 720 0
DWIDTH 9 0
BBX 8 12 0 0
BITMAP
0F
0F
0F
0F
0F
0F
EF
EF
EF
FF
FF
7E
ENDCHAR
STARTCHAR 004B
ENCODING 75
SWIDTH 720 0
DWIDTH 9 0
BBX 8 12 0 0
BITMAP
EF
EF
EF
EF
FF
FE
FF
EF
EF
EF
EF
EF
ENDCHAR
STARTCHAR 004C
ENCODING 76
SWIDTH 720 0
DWIDTH 9 0
BBX 8 12 0 0
BITMAP
E0
E0
E0
E0
E0
E0
E0
E0
E0
FF
FF
FF
ENDCHAR
STARTCHAR 004D
ENCODING 77
SWIDTH 1040 0
DWIDTH 13 0
BBX 12 12 0 0
BITMAP
FFF0
FFF0
FFF0
EF70
EF70
EF70
EF70
EF70
EF70
EF70
EF70
EF70
ENDCHAR
STARTCHAR 004E
ENCODING 78
SWIDTH 720 0
DWIDTH 9 0
BBX 8 12 0 0
BITMAP
FF
FF
FF
EF
EF
EF
EF
EF
EF
EF
EF
EF
ENDCHAR
STARTCHAR 004F
ENCODING 79
SWIDTH 720 0
DWIDTH 9 0
BBX 8 12 0 0
BITMAP
FF
FF
FF
EF
EF
EF
EF
EF
EF
FF
FF
7E
ENDCHAR
STARTCHAR 0050
ENCODING 80
SWIDTH 720 0
DWIDTH 9 0
BBX 8 12 0 0
BITMAP
FF
FF
FF
EF
FF
FF
FF
E0
E0
E0
E0
E0
ENDCHAR
STARTCHAR 0051
ENCODING 81
SWIDTH 800 0
DWIDTH 10 0
BBX 9 12 0 0
BITMAP
FF00
FF00
FF00
EF00
EF00
EF00
EF00
EF00
EF00
FF80
FF80
7F80
ENDCHAR
STARTCHAR 0052
ENCODING 82
SWIDTH 720 0
DWIDTH 9 0
BBX 8 12 0 0
BITMAP
FF
FF
FF
EF
FF
FE
FF
EF
EF
EF
EF
EF
ENDCHAR
STARTCHAR 0053
ENCODING 83
SWIDTH 720 0
DWIDTH 9 0
BBX 8 12 0 0
BITMAP
FF
FF
FF
E0
FE
FF
FF
7F
0F
FF
FF
FE
ENDCHAR
STARTCHAR 0054
ENCODING 84
SWIDTH 720 0
DWIDTH 9 0
BBX 8 12 0 0
BITMAP
FF
FF
FF
3C
3C
3C
3C
3C
3C
3C
3C
3C
ENDCHAR
STARTCHAR 0055
ENCODING 85
SWIDTH 720 0
DWIDTH 9 0
BBX 8 12 0 0
BITMAP
EF
EF
EF
EF
EF
EF
EF
EF
EF
FF
FF
7E
ENDCHAR
STARTCHAR 0056
ENCODING 86
SWIDTH 720 0
DWIDTH 9 0
BBX 8 12 0 0
BITMAP
EF
EF
EF
EF
EF
EF
EF
EF
EF
FF
FF
FE
ENDCHAR
STARTCHAR 0057
ENCODING 87
SWIDTH 1040 0
DWIDTH 13 0
BBX 12 12 0 0
BITMAP
EF70
EF70
EF70
EF70
EF70
EF70
EF70
EF70
EF70
FFF0
FFF0
FFF0
ENDCHAR
STARTCHAR 0058
ENCODING 88
SWIDTH 720 0
DWIDTH 9 0
BBX 8 12 0 0
BITMAP
EF
EF
EF
EF
FF
7E
FF
EF
EF
EF
EF
EF
ENDCHAR
STARTCHAR 0059
ENCODING 89
SWIDTH 720 0
DWIDTH 9 0
BBX 8 12 0 0
BITMAP
EF
EF
EF
EF
FF
FF
FF
FC
3C
3C
3C
3C
ENDCHAR
STARTCHAR 005A
ENCODING 90
SWIDTH 720 0
DWIDTH 9 0
BBX 8 12 0 0
BITMAP
FF
FF
FF
0F
7F
FF
FF
E0
E0
FF
FF
FF
ENDCHAR
STARTCHAR 005B
ENCODING 91
SWIDTH 400 0
DWIDTH 5 0
BBX 0 0 0 0
BITMAP
ENDCHAR
STARTCHAR 005C
ENCODING 92
SWIDTH 400 0
DWIDTH 5 0
BBX 0 0 0 0
BITMAP
ENDCHAR
STARTCHAR 005D
ENCODING 93
SWIDTH 400 0
DWIDTH 5 0
BBX 0 0 0 0
BITMAP
ENDCHAR
STARTCHAR 005E
ENCODING 94
SWIDTH 400 0
DWIDTH 5 0
BBX 0 0 0 0
BITMAP
ENDCHAR
STARTCHAR 005F
ENCODING 95
SWIDTH 400 0
DWIDTH 5 0
BBX 0 0 0 0
BITMAP
ENDCHAR
STARTCHAR 0060
ENCODING 96
SWIDTH 400 0
DWIDTH 5 0
BBX 0 0 0 0
BITMAP
ENDCHAR
STARTCHAR 0061
ENCODING 97
SWIDTH 720 0
DWIDTH 9 0
BBX 8 12 0 0
BITMAP
FF
FF
FF
EF
FF
FF
FF
EF
EF
EF
EF
EF
ENDCHAR
STARTCHAR 0062
ENCODING 98
SWIDTH 720 0
DWIDTH 9 0
BBX 8 12 0 0
BITMAP
FF
FF
FF
EF
FF
FE
FF
EF
EF
FF
FF
FE
ENDCHAR
STARTCHAR 0063
ENCODING 99
SWIDTH 720 0
DWIDTH 9 0
BBX 8 12 0 0
BITMAP
FF
FF
FF
EF
E0
E0
E0
EF
EF
FF
FF
7E
ENDCHAR
STARTCHAR 0064
ENCODING 100
SWIDTH 720 0
DWIDTH 9 0
BBX 8 12 0 0
BITMAP
FF
FF
FF
EF
EF
EF
EF
EF
EF
FF
FF
FE
ENDCHAR
STARTCHAR 0065
ENCODING 101
SWIDTH 720 0
DWIDTH 9 0
BBX 8 12 0 0
BITMAP
FF
FF
FF
E0
FF
FF
FF
E0
E0
FF
FF
FF
ENDCHAR
STARTCHAR 0066
ENCODING 102
SWIDTH 720 0
DWIDTH 9 0
BBX 8 12 0 0
BITMAP
FF
FF
FF
E0
FF
FF
FF
E0
E0
E0
E0
E0
ENDCHAR
STARTCHAR 0067
ENCODING 103
SWIDTH 720 0
DWIDTH 9 0
BBX 8 12 0 0
BITMAP
FF
FF
FF
E0
EF
EF
EF
EF
EF
FF
FF
7F
ENDCHAR
STARTCHAR 0068
ENCODING 104
SWIDTH 720 0
DWIDTH 9 0
BBX 8 12 0 0
BITMAP
EF
EF
EF
EF
FF
FF
FF
EF
EF
EF
EF
EF
ENDCHAR
STARTCHAR 0069
ENCODING 105
SWIDTH 400 0
DWIDTH 5 0
BBX 3 12 0 0
BITMAP
E0
E0
E0
E0
E0
E0
E0
E0
E0
E0
E0
E0
ENDCHAR
STARTCHAR 006A
ENCODING 106
SWIDTH 720 0
DWIDTH 9 0
BBX 8 12 0 0
BITMAP
0F
0F
0F
0F
0F
0F
EF
EF
EF
FF
FF
7E
ENDCHAR
STARTCHAR 006B
ENCODING 107
SWIDTH 720 0
DWIDTH 9 0
BBX 8 12 0 0
BITMAP
EF
EF
EF
EF
FF
FE
FF
EF
EF
EF
EF
EF
ENDCHAR
STARTCHAR 006C
ENCODING 108
SWIDTH 720 0
DWIDTH 9 0
BBX 8 12 0 0
BITMAP
E0
E0
E0
E0
E0
E0
E0
E0
E0
FF
FF
FF
ENDCHAR
STARTCHAR 006D
ENCODING 109
SWIDTH 1040 0
DWIDTH 13 0
BBX 12 12 0 0
BITMAP
FFF0
FFF0
FFF0
EF70
EF70
EF70
EF70
EF70
EF70
EF70
EF70
EF70
ENDCHAR
STARTCHAR 006E
ENCODING 110
SWIDTH 720 0
DWIDTH 9 0
BBX 8 12 0 0
BITMAP
FF
FF
FF
EF
EF
EF
EF
EF
EF
EF
EF
EF
ENDCHAR
STARTCHAR 006F
ENCODING 111
SWIDTH 720 0
DWIDTH 9 0
BBX 8 12 0 0
BITMAP
FF
FF
FF
EF
EF
EF
EF
EF
EF
FF
FF
7E
ENDCHAR
STARTCHAR 0070
ENCODING 112
SWIDTH 720 0
DWIDTH 9 0
BBX 8 12 0 0
BITMAP
FF
FF
FF
EF
FF
FF
FF
E0
E0
E0
E0
E0
ENDCHAR
STARTCHAR 0071
ENCODING 113
SWIDTH 800 0
DWIDTH 10 0
BBX 9 12 0 0
BITMAP
FF00
FF00
FF00
EF00
EF00
EF00
EF00
EF00
EF00
FF80
FF80
7F80
ENDCHAR
STARTCHAR 0072
ENCODING 114
SWIDTH 720 0
DWIDTH 9 0
BBX 8 12 0 0
BITMAP
FF
FF
FF
EF
FF
FE
FF
EF
EF
EF
EF
EF
ENDCHAR
STARTCHAR 0073
ENCODING 115
SWIDTH 720 0
DWIDTH 9 0
BBX 8 12 0 0
BITMAP
FF
FF
FF
E0
FE
FF
FF
7F
0F
FF
FF
FE
ENDCHAR
STARTCHAR 0074
ENCODING 116
SWIDTH 720 0
DWIDTH 9 0
BBX 8 12 0 0
BITMAP
FF
FF
FF
3C
3C
3C
3C
3C
3C
3C
3C
3C
ENDCHAR
STARTCHAR 0075
ENCODING 117
SWIDTH 720 0
DWIDTH 9 0
BBX 8 12 0 0
BITMAP
EF
EF
EF
EF
EF
EF
EF
EF
EF
FF
FF
7E
ENDCHAR
STARTCHAR 0076
ENCODING 118
SWIDTH 720 0
DWIDTH 9 0
BBX 8 12 0 0
BITMAP
EF
EF
EF
EF
EF
EF
EF
EF
EF
FF
FF
FE
ENDCHAR
STARTCHAR 0077
ENCODING 119
SWIDTH 1040 0
DWIDTH 13 0
BBX 12 12 0 0
BITMAP
EF70
EF70
EF70
EF70
EF70
EF70
EF70
EF70
EF70
FFF0
FFF0
FFF0
ENDCHAR
STARTCHAR 0078
ENCODING 120
SWIDTH 720 0
DWIDTH 9 0
BBX 8 12 0 0
BITMAP
EF
EF
EF
EF
FF
7E
FF
EF
EF
EF
EF
EF
ENDCHAR
STARTCHAR 0079
ENCODING 121
SWIDTH 720 0
DWIDTH 9 0
BBX 8 12 0 0
BITMAP
EF
EF
EF
EF
FF
FF
FF
FC
3C
3C
3C
3C
ENDCHAR
STARTCHAR 007A
ENCODING 122
SWIDTH 720 0
DWIDTH 9 0
BBX 8 12 0 0
BITMAP
FF
FF
FF
0F
7F
FF
FF
E0
E0
FF
FF
FF
ENDCHAR
STARTCHAR 007B
ENCODING 123
SWIDTH 400 0
DWIDTH 5 0
BBX 0 0 0 0
BITMAP
ENDCHAR
STARTCHAR 007C
ENCODING 124
SWIDTH 400 0
DWIDTH 5 0
BBX 0 0 0 0
BITMAP
ENDCHAR
STARTCHAR 007D
ENCODING 125
SWIDTH 400 0
DWIDTH 5 0
BBX 0 0 0 0
BITMAP
ENDCHAR
STARTCHAR 007E
ENCODING 126
SWIDTH 400 0
DWIDTH 5 0
BBX 0 0 0 0
BITMAP
ENDCHAR
STARTCHAR 00A0
ENCODING 160
SWIDTH 480 0
DWIDTH 6 0
BBX 0 0 0 0
BITMAP
ENDCHAR
STARTCHAR 00A1
ENCODING 161
SWIDTH 480 0
DWIDTH 6 0
BBX 0 0 0 0
BITMAP
ENDCHAR
STARTCHAR 00A2
ENCODING 162
SWIDTH 480 0
DWIDTH 6 0
BBX 0 0 0 0
BITMAP
ENDCHAR
STARTCHAR 00A3
ENCODING 163
SWIDTH 480 0
DWIDTH 6 0
BBX 0 0 0 0
BITMAP
ENDCHAR
STARTCHAR 00A4
ENCODING 164
SWIDTH 480 0
DWIDTH 6 0
BBX 0 0 0 0
BITMAP
ENDCHAR
STARTCHAR 00A5
ENCODING 165
SWIDTH 480 0
DWIDTH 6 0
BBX 0 0 0 0
BITMAP
ENDCHAR
STARTCHAR 00A6
ENCODING 166
SWIDTH 480 0
DWIDTH 6 0
BBX 0 0 0 0
BITMAP
ENDCHAR
STARTCHAR 00A7
ENCODING 167
SWIDTH 480 0
DWIDTH 6 0
BBX 0 0 0 0
BITMAP
ENDCHAR
STARTCHAR 00A8
ENCODING 168
SWIDTH 480 0
DWIDTH 6 0
BBX 0 0 0 0
BITMAP
ENDCHAR
STARTCHAR 00A9
ENCODING 169
SWIDTH 480 0
DWIDTH 6 0
BBX 0 0 0 0
BITMAP
ENDCHAR
STARTCHAR 00AA
ENCODING 170
SWIDTH 480 0
DWIDTH 6 0
BBX 0 0 0 0
BITMAP
ENDCHAR
STARTCHAR 00AB
ENCODING 171
SWIDTH 480 0
DWIDTH 6 0
BBX 0 0 0 0
BITMAP
ENDCHAR
STARTCHAR 00AC
ENCODING 172
SWIDTH 480 0
DWIDTH 6 0
BBX 0 0 0 0
BITMAP
ENDCHAR
STARTCHAR 00AD
ENCODING 173
SWIDTH 480 0
DWIDTH 6 0
BBX 0 0 0 0
BITMAP
ENDCHAR
STARTCHAR 00AE
ENCODING 174
SWIDTH 480 0
DWIDTH 6 0
BBX 0 0 0 0
BITMAP
ENDCHAR
STARTCHAR 00AF
ENCODING 175
SWIDTH 480 0
DWIDTH 6 0
BBX 0 0 0 0
BITMAP
ENDCHAR
STARTCHAR 00B0
ENCODING 176
SWIDTH 480 0
DWIDTH 6 0
BBX 0 0 0 0
BITMAP
ENDCHAR
STARTCHAR 00B1
ENCODING 177
SWIDTH 480 0
DWIDTH 6 0
BBX 0 0 0 0
BITMAP
ENDCHAR
STARTCHAR 00B2
ENCODING 178
SWIDTH 480 0
DWIDTH 6 0
BBX 0 0 0 0
BITMAP
ENDCHAR
STARTCHAR 00B3
ENCODING 179
SWIDTH 480 0
DWIDTH 6 0
BBX 0 0 0 0
BITMAP
ENDCHAR
STARTCHAR 00B4
ENCODING 180
SWIDTH 480 0
DWIDTH 6 0
BBX 0 0 0 0
BITMAP
ENDCHAR
STARTCHAR 00B5
ENCODING 181
SWIDTH 480 0
DWIDTH 6 0
BBX 0 0 0 0
BITMAP
ENDCHAR
STARTCHAR 00B6
ENCODING 182
SWIDTH 480 0
DWIDTH 6 0
BBX 0 0 0 0
BITMAP
ENDCHAR
STARTCHAR 00B7
ENCODING 183
SWIDTH 480 0
DWIDTH 6 0
BBX 0 0 0 0
BITMAP
ENDCHAR
STARTCHAR 00B8
ENCODING 184
SWIDTH 480 0
DWIDTH 6 0
BBX 0 0 0 0
BITMAP
ENDCHAR
STARTCHAR 00B9
ENCODING 185
SWIDTH 480 0
DWIDTH 6 0
BBX 0 0 0 0
BITMAP
ENDCHAR
STARTCHAR 00BA
ENCODING 186
SWIDTH 480 0
DWIDTH 6 0
BBX 0 0 0 0
BITMAP
ENDCHAR
STARTCHAR 00BB
ENCODING 187
SWIDTH 480 0
DWIDTH 6 0
BBX 0 0 0 0
BITMAP
ENDCHAR
STARTCHAR 00BC
ENCODING 188
SWIDTH 480 0
DWIDTH 6 0
BBX 0 0 0 0
BITMAP
ENDCHAR
STARTCHAR 00BD
ENCODING 189
SWIDTH 480 0
DWIDTH 6 0
BBX 0 0 0 0
BITMAP
ENDCHAR
STARTCHAR 00BE
ENCODING 190
SWIDTH 480 0
DWIDTH 6 0
BBX 0 0 0 0
BITMAP
ENDCHAR
STARTCHAR 00BF
ENCODING 191
SWIDTH 480 0
DWIDTH 6 0
BBX 0 0 0 0
BITMAP
ENDCHAR
STARTCHAR 00C0
ENCODING 192
SWIDTH 480 0
DWIDTH 6 0
BBX 0 0 0 0
BITMAP
ENDCHAR
STARTCHAR 00C1
ENCODING 193
SWIDTH 480 0
DWIDTH 6 0
BBX 0 0 0 0
BITMAP
ENDCHAR
STARTCHAR 00C2
ENCODING 194
SWIDTH 480 0
DWIDTH 6 0
BBX 0 0 0 0
BITMAP
ENDCHAR
STARTCHAR 00C3
ENCODING 195
SWIDTH 480 0
DWIDTH 6 0
BBX 0 0 0 0
BITMAP
ENDCHAR
STARTCHAR 00C4
ENCODING 196
SWIDTH 480 0
DWIDTH 6 0
BBX 0 0 0 0
BITMAP
ENDCHAR
STARTCHAR 00C5
ENCODING 197
SWIDTH 480 0
DWIDTH 6 0
BBX 0 0 0 0
BITMAP
ENDCHAR
STARTCHAR 00C6
ENCODING 198
SWIDTH 480 0
DWIDTH 6 0
BBX 0 0 0 0
BITMAP
ENDCHAR
STARTCHAR 00C7
ENCODING 199
SWIDTH 480 0
DWIDTH 6 0
BBX 0 0 0 0
BITMAP
ENDCHAR
STARTCHAR 00C8
ENCODING 200
SWIDTH 480 0
DWIDTH 6 0
BBX 0 0 0 0
BITMAP
ENDCHAR
STARTCHAR 00C9
ENCODING 201
SWIDTH 480 0
DWIDTH 6 0
BBX 0 0 0 0
BITMAP
ENDCHAR
STARTCHAR 00CA
ENCODING 202
SWIDTH 480 0
DWIDTH 6 0
BBX 0 0 0 0
BITMAP
ENDCHAR
STARTCHAR 00CB
ENCODING 203
SWIDTH 480 0
DWIDTH 6 0
BBX 0 0 0 0
BITMAP
ENDCHAR
STARTCHAR 00CC
ENCODING 204
SWIDTH 480 0
DWIDTH 6 0
BBX 0 0 0 0
BITMAP
ENDCHAR
STARTCHAR 00CD
ENCODING 205
SWIDTH 480 0
DWIDTH 6 0
BBX 0 0 0 0
BITMAP
ENDCHAR
STARTCHAR 00CE
ENCODING 206
SWIDTH 480 0
DWIDTH 6 0
BBX 0 0 0 0
BITMAP
ENDCHAR
STARTCHAR 00CF
ENCODING 207
SWIDTH 480 0
DWIDTH 6 0
BBX 0 0 0 0
BITMAP
ENDCHAR
STARTCHAR 00D0
ENCODING 208
SWIDTH 480 0
DWIDTH 6 0
BBX 0 0 0 0
BITMAP
ENDCHAR
STARTCHAR 00D1
ENCODING 209
SWIDTH 480 0
DWIDTH 6 0
BBX 0 0 0 0
BITMAP
ENDCHAR
STARTCHAR 00D2
ENCODING 210
SWIDTH 480 0
DWIDTH 6 0
BBX 0 0 0 0
BITMAP
ENDCHAR
STARTCHAR 00D3
ENCODING 211
SWIDTH 480 0
DWIDTH 6 0
BBX 0 0 0 0
BITMAP
ENDCHAR
STARTCHAR 00D4
ENCODING 212
SWIDTH 480 0
DWIDTH 6 0
BBX 0 0 0 0
BITMAP
ENDCHAR
STARTCHAR 00D5
ENCODING 213
SWIDTH 480 0
DWIDTH 6 0
BBX 0 0 0 0
BITMAP
ENDCHAR
STARTCHAR 00D6
ENCODING 214
SWIDTH 480 0
DWIDTH 6 0
BBX 0 0 0 0
BITMAP
ENDCHAR
STARTCHAR 00D7
ENCODING 215
SWIDTH 480 0
DWIDTH 6 0
BBX 0 0 0 0
BITMAP
ENDCHAR
STARTCHAR 00D8
ENCODING 216
SWIDTH 480 0
DWIDTH 6 0
BBX 0 0 0 0
BITMAP
ENDCHAR
STARTCHAR 00D9
ENCODING 217
SWIDTH 480 0
DWIDTH 6 0
BBX 0 0 0 0
BITMAP
ENDCHAR
STARTCHAR 00DA
ENCODING 218
SWIDTH 480 0
DWIDTH 6 0
BBX 0 0 0 0
BITMAP
ENDCHAR
STARTCHAR 00DB
ENCODING 219
SWIDTH 480 0
DWIDTH 6 0
BBX 0 0 0 0
BITMAP
ENDCHAR
STARTCHAR 00DC
ENCODING 220
SWIDTH 480 0
DWIDTH 6 0
BBX 0 0 0 0
BITMAP
ENDCHAR
STARTCHAR 00DD
ENCODING 221
SWIDTH 480 0
DWIDTH 6 0
BBX 0 0 0 0
BITMAP
ENDCHAR
STARTCHAR 00DE
ENCODING 222
SWIDTH 480 0
DWIDTH 6 0
BBX 0 0 0 0
BITMAP
ENDCHAR
STARTCHAR 00DF
ENCODING 223
SWIDTH 480 0
DWIDTH 6 0
BBX 0 0 0 0
BITMAP
ENDCHAR
STARTCHAR 00E0
ENCODING 224
SWIDTH 480 0
DWIDTH 6 0
BBX 0 0 0 0
BITMAP
ENDCHAR
STARTCHAR 00E1
ENCODING 225
SWIDTH 480 0
DWIDTH 6 0
BBX 0 0 0 0
BITMAP
ENDCHAR
STARTCHAR 00E2
ENCODING 226
SWIDTH 480 0
DWIDTH 6 0
BBX 0 0 0 0
BITMAP
ENDCHAR
STARTCHAR 00E3
ENCODING 227
SWIDTH 480 0
DWIDTH 6 0
BBX 0 0 0 0
BITMAP
ENDCHAR
STARTCHAR 00E4
ENCODING 228
SWIDTH 480 0
DWIDTH 6 0
BBX 0 0 0 0
BITMAP
ENDCHAR
STARTCHAR 00E5
ENCODING 229
SWIDTH 480 0
DWIDTH 6 0
BBX 0 0 0 0
BITMAP
ENDCHAR
STARTCHAR 00E6
ENCODING 230
SWIDTH 480 0
DWIDTH 6 0
BBX 0 0 0 0
BITMAP
ENDCHAR
STARTCHAR 00E7
ENCODING 231
SWIDTH 480 0
DWIDTH 6 0
BBX 0 0 0 0
BITMAP
ENDCHAR
STARTCHAR 00E8
ENCODING 232
SWIDTH 480 0
DWIDTH 6 0
BBX 0 0 0 0
BITMAP
ENDCHAR
STARTCHAR 00E9
ENCODING 233
SWIDTH 480 0
DWIDTH 6 0
BBX 0 0 0 0
BITMAP
ENDCHAR
STARTCHAR 00EA
ENCODING 234
SWIDTH 480 0
DWIDTH 6 0
BBX 0 0 0 0
BITMAP
ENDCHAR
STARTCHAR 00EB
ENCODING 235
SWIDTH 480 0
DWIDTH 6 0
BBX 0 0 0 0
BITMAP
ENDCHAR
STARTCHAR 00EC
ENCODING 236
SWIDTH 480 0
DWIDTH 6 0
BBX 0 0 0 0
BITMAP
ENDCHAR
STARTCHAR 00ED
ENCODING 237
SWIDTH 480 0
DWIDTH 6 0
BBX 0 0 0 0
BITMAP
ENDCHAR
STARTCHAR 00EE
ENCODING 238
SWIDTH 480 0
DWIDTH 6 0
BBX 0 0 0 0
BITMAP
ENDCHAR
STARTCHAR 00EF
ENCODING 239
SWIDTH 480 0
DWIDTH 6 0
BBX 0 0 0 0
BITMAP
ENDCHAR
STARTCHAR 00F0
ENCODING 240
SWIDTH 480 0
DWIDTH 6 0
BBX 0 0 0 0
BITMAP
ENDCHAR
STARTCHAR 00F1
ENCODING 241
SWIDTH 480 0
DWIDTH 6 0
BBX 0 0 0 0
BITMAP
ENDCHAR
STARTCHAR 00F2
ENCODING 242
SWIDTH 480 0
DWIDTH 6 0
BBX 0 0 0 0
BITMAP
ENDCHAR
STARTCHAR 00F3
ENCODING 243
SWIDTH 480 0
DWIDTH 6 0
BBX 0 0 0 0
BITMAP
ENDCHAR
STARTCHAR 00F4
ENCODING 244
SWIDTH 480 0
DWIDTH 6 0
BBX 0 0 0 0
BITMAP
ENDCHAR
STARTCHAR 00F5
ENCODING 245
SWIDTH 480 0
DWIDTH 6 0
BBX 0 0 0 0
BITMAP
ENDCHAR
STARTCHAR 00F6
ENCODING 246
SWIDTH 480 0
DWIDTH 6 0
BBX 0 0 0 0
BITMAP
ENDCHAR
STARTCHAR 00F7
ENCODING 247
SWIDTH 480 0
DWIDTH 6 0
BBX 0 0 0 0
BITMAP
ENDCHAR
STARTCHAR 00F8
ENCODING 248
SWIDTH 480 0
DWIDTH 6 0
BBX 0 0 0 0
BITMAP
ENDCHAR
STARTCHAR 00F9
ENCODING 249
SWIDTH 480 0
DWIDTH 6 0
BBX 0 0 0 0
BITMAP
ENDCHAR
STARTCHAR 00FA
ENCODING 250
SWIDTH 480 0
DWIDTH 6 0
BBX 0 0 0 0
BITMAP
ENDCHAR
STARTCHAR 00FB
ENCODING 251
SWIDTH 480 0
DWIDTH 6 0
BBX 0 0 0 0
BITMAP
ENDCHAR
STARTCHAR 00FC
ENCODING 252
SWIDTH 480 0
DWIDTH 6 0
BBX 0 0 0 0
BITMAP
ENDCHAR
STARTCHAR 00FD
ENCODING 253
SWIDTH 480 0
DWIDTH 6 0
BBX 0 0 0 0
BITMAP
ENDCHAR
STARTCHAR 00FE
ENCODING 254
SWIDTH 480 0
DWIDTH 6 0
BBX 0 0 0 0
BITMAP
ENDCHAR
STARTCHAR 00FF
ENCODING 255
SWIDTH 480 0
DWIDTH 6 0
BBX 0 0 0 0
BITMAP
ENDCHAR
STARTCHAR 0152
ENCODING 338
SWIDTH 480 0
DWIDTH 6 0
BBX 0 0 0 0
BITMAP
ENDCHAR
STARTCHAR 0153
ENCODING 339
SWIDTH 480 0
DWIDTH 6 0
BBX 0 0 0 0
BITMAP
ENDCHAR
STARTCHAR 0160
ENCODING 352
SWIDTH 480 0
DWIDTH 6 0
BBX 0 0 0 0
BITMAP
ENDCHAR
STARTCHAR 0161
ENCODING 353
SWIDTH 480 0
DWIDTH 6 0
BBX 0 0 0 0
BITMAP
ENDCHAR
STARTCHAR 0178
ENCODING 376
SWIDTH 480 0
DWIDTH 6 0
BBX 0 0 0 0
BITMAP
ENDCHAR
STARTCHAR 017D
ENCODING 381
SWIDTH 480 0
DWIDTH 6 0
BBX 0 0 0 0
BITMAP
ENDCHAR
STARTCHAR 017E
ENCODING 382
SWIDTH 480 0
DWIDTH 6 0
BBX 0 0 0 0
BITMAP
ENDCHAR
STARTCHAR 0192
ENCODING 402
SWIDTH 480 0
DWIDTH 6 0
BBX 0 0 0 0
BITMAP
ENDCHAR
STARTCHAR 02C6
ENCODING 710
SWIDTH 480 0
DWIDTH 6 0
BBX 0 0 0 0
BITMAP
ENDCHAR
STARTCHAR 02DC
ENCODING 732
SWIDTH 480 0
DWIDTH 6 0
BBX 0 0 0 0
BITMAP
ENDCHAR
STARTCHAR 2013
ENCODING 8211
SWIDTH 480 0
DWIDTH 6 0
BBX 0 0 0 0
BITMAP
ENDCHAR
STARTCHAR 2014
ENCODING 8212
SWIDTH 480 0
DWIDTH 6 0
BBX 0 0 0 0
BITMAP
ENDCHAR
STARTCHAR 2018
ENCODING 8216
SWIDTH 480 0
DWIDTH 6 0
BBX 0 0 0 0
BITMAP
ENDCHAR
STARTCHAR 2019
ENCODING 8217
SWIDTH 480 0
DWIDTH 6 0
BBX 0 0 0 0
BITMAP
ENDCHAR
STARTCHAR 201A
ENCODING 8218
SWIDTH 480 0
DWIDTH 6 0
BBX 0 0 0 0
BITMAP
ENDCHAR
STARTCHAR 201C
ENCODING 8220
SWIDTH 480 0
DWIDTH 6 0
BBX 0 0 0 0
BITMAP
ENDCHAR
STARTCHAR 201D
ENCODING 8221
SWIDTH 480 0
DWIDTH 6 0
BBX 0 0 0 0
BITMAP
ENDCHAR
STARTCHAR 201E
ENCODING 8222
SWIDTH 480 0
DWIDTH 6 0
BBX 0 0 0 0
BITMAP
ENDCHAR
STARTCHAR 2020
ENCODING 8224
SWIDTH 480 0
DWIDTH 6 0
BBX 0 0 0 0
BITMAP
ENDCHAR
STARTCHAR 2021
ENCODING 8225
SWIDTH 480 0
DWIDTH 6 0
BBX 0 0 0 0
BITMAP
ENDCHAR
STARTCHAR 2022
ENCODING 8226
SWIDTH 480 0
DWIDTH 6 0
BBX 0 0 0 0
BITMAP
ENDCHAR
STARTCHAR 2026
ENCODING 8230
SWIDTH 480 0
DWIDTH 6 0
BBX 0 0 0 0
BITMAP
ENDCHAR
STARTCHAR 2030
ENCODING 8240
SWIDTH 480 0
DWIDTH 6 0
BBX 0 0 0 0
BITMAP
ENDCHAR
STARTCHAR 2039
ENCODING 8249
SWIDTH 480 0
DWIDTH 6 0
BBX 0 0 0 0
BITMAP
ENDCHAR
STARTCHAR 203A
ENCODING 8250
SWIDTH 480 0
DWIDTH 6 0
BBX 0 0 0 0
BITMAP
ENDCHAR
STARTCHAR 20AC
ENCODING 8364
SWIDTH 400 0
DWIDTH 5 0
BBX 0 0 0 0
BITMAP
ENDCHAR
STARTCHAR 2122
ENCODING 8482
SWIDTH 480 0
DWIDTH 6 0
BBX 0 0 0 0
BITMAP
ENDCHAR
STARTCHAR 2219
ENCODING 8729
SWIDTH 480 0
DWIDTH 6 0
BBX 0 0 0 0
BITMAP
ENDCHAR
ENDFONT
